<?xml version="1.0" encoding="utf-8"?>
<!-- Generator: Adobe Illustrator 16.0.0, SVG Export Plug-In . SVG Version: 6.00 Build 0)  -->
<!DOCTYPE svg PUBLIC "-//W3C//DTD SVG 1.1//EN" "http://www.w3.org/Graphics/SVG/1.1/DTD/svg11.dtd">
<svg version="1.1" id="레이어_1" xmlns="http://www.w3.org/2000/svg" xmlns:xlink="http://www.w3.org/1999/xlink" x="0px"
	 y="0px" width="300px" height="300px" viewBox="0 0 300 300" enable-background="new 0 0 300 300" xml:space="preserve">
<g>
	<path fill="#FFFFFF" d="M265.629,264.511h-230v-230h230V264.511z M50.629,249.511h200v-200h-200V249.511z"/>
</g>
<g>
	<path fill="#FFFFFF" d="M99.579,176.846c1.964,0,3.551-0.715,4.757-2.145c1.206-1.428,2.211-3.35,3.015-5.762
		c0.804-2.412,1.451-5.203,1.943-8.375c0.49-3.17,0.959-6.541,1.407-10.116c0.178-1.607,0.356-3.505,0.536-5.694
		c0.178-2.188,0.379-5.002,0.603-8.442c0.222-3.438,0.49-7.725,0.804-12.863c0.312-5.136,0.691-11.457,1.139-18.96
		c0.088-1.25,0.222-2.098,0.402-2.546c0.178-0.446,0.758-0.67,1.742-0.67h7.37c3.036,0,5.426,0.268,7.168,0.804
		c1.742,0.536,3.059,1.206,3.953,2.01c0.892,0.804,1.428,1.675,1.608,2.613c0.178,0.938,0.268,1.855,0.268,2.747
		c0,0.894-0.046,2.948-0.134,6.164c-0.09,3.216-0.224,6.947-0.402,11.188c-0.18,4.244-0.425,8.688-0.737,13.332
		c-0.314,4.646-0.649,8.844-1.005,12.595c-0.536,5.092-1.363,10.297-2.479,15.609c-1.118,5.316-2.927,10.162-5.427,14.539
		c-2.502,4.377-5.829,7.951-9.982,10.719c-4.153,2.77-9.536,4.154-16.146,4.154c-3.664,0-6.947-0.449-9.849-1.34
		c-2.904-0.893-5.359-2.121-7.37-3.686c-2.01-1.563-3.551-3.393-4.623-5.494c-1.072-2.098-1.608-4.309-1.608-6.631
		c0-2.145,0.425-4.088,1.273-5.83c0.848-1.742,1.987-3.191,3.417-4.354c1.428-1.16,3.059-2.055,4.891-2.68
		c1.83-0.625,3.729-0.939,5.694-0.939c0.536,0,0.915,0.516,1.139,1.541c0.222,1.029,0.536,2.191,0.938,3.484
		c0.402,1.297,1.005,2.457,1.809,3.484C96.498,176.332,97.792,176.846,99.579,176.846z"/>
	<path fill="#FFFFFF" d="M222.448,152.727c-0.27,2.68-0.67,5.65-1.207,8.91c-0.535,3.262-1.363,6.566-2.479,9.916
		c-1.117,3.35-2.613,6.588-4.488,9.715c-1.877,3.127-4.287,5.918-7.236,8.373c-2.947,2.459-6.498,4.422-10.652,5.896
		c-4.152,1.473-9.09,2.211-14.805,2.211c-5.809,0-10.766-0.828-14.873-2.479c-4.111-1.652-7.461-3.93-10.051-6.834
		c-2.592-2.902-4.467-6.275-5.627-10.117c-1.162-3.84-1.742-7.949-1.742-12.326c0-1.965,0.088-4.623,0.268-7.973
		c0.179-3.35,0.424-6.988,0.738-10.92c0.312-3.93,0.646-8.017,1.004-12.26c0.356-4.242,0.691-8.285,1.006-12.126
		c0.312-3.839,0.603-7.302,0.871-10.384c0.268-3.082,0.445-5.427,0.535-7.035c0.088-1.696,0.313-2.791,0.67-3.283
		c0.355-0.49,0.893-0.737,1.607-0.737h7.371c5.447,0,9.111,1.162,10.986,3.484c1.875,2.324,2.814,5.762,2.814,10.317
		c0,0.268-0.068,1.453-0.201,3.551c-0.135,2.1-0.314,4.668-0.537,7.705c-0.223,3.038-0.447,6.343-0.67,9.915
		c-0.223,3.573-0.447,6.968-0.67,10.184s-0.4,6.03-0.535,8.442s-0.201,4.02-0.201,4.822c0,1.521,0.066,3.262,0.201,5.227
		s0.49,3.842,1.072,5.627c0.58,1.789,1.518,3.283,2.813,4.488c1.295,1.207,3.15,1.811,5.561,1.811c3.037,0,5.516-1.027,7.438-3.082
		c1.92-2.055,3.395-4.51,4.422-7.369c1.025-2.859,1.742-5.762,2.145-8.711c0.4-2.947,0.689-5.359,0.869-7.235
		c0.357-4.556,0.738-9.245,1.141-14.069c0.4-4.824,0.758-9.333,1.07-13.533c0.313-4.198,0.559-7.859,0.738-10.987
		c0.178-3.126,0.268-5.27,0.268-6.432c0-1.786,0.135-2.925,0.402-3.417c0.268-0.49,0.848-0.737,1.742-0.737h7.369
		c3.035,0,5.426,0.268,7.168,0.804c1.742,0.536,3.059,1.252,3.953,2.144c0.893,0.894,1.451,1.922,1.674,3.082
		c0.223,1.162,0.336,2.368,0.336,3.618c0,1.162-0.066,3.35-0.201,6.565s-0.291,6.88-0.469,10.987
		c-0.18,4.11-0.402,8.354-0.67,12.729C223.118,145.582,222.804,149.423,222.448,152.727z"/>
</g>
</svg>
